HIERARCHY
ROOT mixamorig:Hips
{
	OFFSET -0.000008 104.274872 1.554316
	CHANNELS 6 Xposition Yposition Zposition Xrotation Yrotation Zrotation
	JOINT mixamorig:Spine
	{
		OFFSET -0.000005 10.181595 0.131519
		CHANNELS 6 Xposition Yposition Zposition Xrotation Yrotation Zrotation
		JOINT mixamorig:Spine1
		{
			OFFSET -0.000000 9.893959 -1.470707
			CHANNELS 6 Xposition Yposition Zposition Xrotation Yrotation Zrotation
			JOINT mixamorig:Spine2
			{
				OFFSET -0.000000 9.220757 -1.370641
				CHANNELS 6 Xposition Yposition Zposition Xrotation Yrotation Zrotation
				JOINT mixamorig:Neck
				{
					OFFSET 0.000001 16.740417 -2.049036
					CHANNELS 6 Xposition Yposition Zposition Xrotation Yrotation Zrotation
					JOINT mixamorig:Head
					{
						OFFSET 0.000000 9.617874 1.685006
						CHANNELS 6 Xposition Yposition Zposition Xrotation Yrotation Zrotation
						JOINT mixamorig:HeadTop_End
						{
							OFFSET 0.000002 22.037354 7.501101
							CHANNELS 6 Xposition Yposition Zposition Xrotation Yrotation Zrotation
							End Site
							{
								OFFSET 0.000168 2310.654297 -282.823242
							}
						}
					}
				}
				JOINT mixamorig:RightShoulder
				{
					OFFSET -4.569970 11.014908 -2.160885
					CHANNELS 6 Xposition Yposition Zposition Xrotation Yrotation Zrotation
					JOINT mixamorig:RightArm
					{
						OFFSET -10.592851 -0.524811 -2.232101
						CHANNELS 6 Xposition Yposition Zposition Xrotation Yrotation Zrotation
						JOINT mixamorig:RightForeArm
						{
							OFFSET -27.841511 0.000031 -0.000004
							CHANNELS 6 Xposition Yposition Zposition Xrotation Yrotation Zrotation
							JOINT mixamorig:RightHand
							{
								OFFSET -28.328831 -0.000015 0.000015
								CHANNELS 6 Xposition Yposition Zposition Xrotation Yrotation Zrotation
								JOINT mixamorig:RightHandThumb1
								{
									OFFSET -2.464806 -1.573990 2.681852
									CHANNELS 6 Xposition Yposition Zposition Xrotation Yrotation Zrotation
									JOINT mixamorig:RightHandThumb2
									{
										OFFSET -3.215179 -1.872803 1.924282
										CHANNELS 6 Xposition Yposition Zposition Xrotation Yrotation Zrotation
										JOINT mixamorig:RightHandThumb3
										{
											OFFSET -2.654831 -1.527969 1.512609
											CHANNELS 6 Xposition Yposition Zposition Xrotation Yrotation Zrotation
											JOINT mixamorig:RightHandThumb4
											{
												OFFSET -2.018814 -1.152008 1.108052
												CHANNELS 6 Xposition Yposition Zposition Xrotation Yrotation Zrotation
												End Site
												{
													OFFSET -188.809540 -114.533607 132.431396
												}
											}
										}
									}
								}
								JOINT mixamorig:RightHandIndex1
								{
									OFFSET -9.108284 -0.517868 2.259835
									CHANNELS 6 Xposition Yposition Zposition Xrotation Yrotation Zrotation
									JOINT mixamorig:RightHandIndex2
									{
										OFFSET -3.699989 0.000000 0.001215
										CHANNELS 6 Xposition Yposition Zposition Xrotation Yrotation Zrotation
										JOINT mixamorig:RightHandIndex3
										{
											OFFSET -2.850006 0.000031 -0.000522
											CHANNELS 6 Xposition Yposition Zposition Xrotation Yrotation Zrotation
											JOINT mixamorig:RightHandIndex4
											{
												OFFSET -2.772186 -0.000015 -0.000020
												CHANNELS 6 Xposition Yposition Zposition Xrotation Yrotation Zrotation
												End Site
												{
													OFFSET -277.218445 0.000000 -0.050231
												}
											}
										}
									}
								}
								JOINT mixamorig:RightHandMiddle1
								{
									OFFSET -9.532516 -0.000031 -0.000023
									CHANNELS 6 Xposition Yposition Zposition Xrotation Yrotation Zrotation
									JOINT mixamorig:RightHandMiddle2
									{
										OFFSET -3.700005 -0.000015 0.003713
										CHANNELS 6 Xposition Yposition Zposition Xrotation Yrotation Zrotation
										JOINT mixamorig:RightHandMiddle3
										{
											OFFSET -2.949974 0.000015 -0.002054
											CHANNELS 6 Xposition Yposition Zposition Xrotation Yrotation Zrotation
											JOINT mixamorig:RightHandMiddle4
											{
												OFFSET -2.946640 0.000000 -0.000156
												CHANNELS 6 Xposition Yposition Zposition Xrotation Yrotation Zrotation
												End Site
												{
													OFFSET -294.664337 0.000000 -0.113670
												}
											}
										}
									}
								}
								JOINT mixamorig:RightHandRing1
								{
									OFFSET -9.103600 -0.043076 -1.865134
									CHANNELS 6 Xposition Yposition Zposition Xrotation Yrotation Zrotation
									JOINT mixamorig:RightHandRing2
									{
										OFFSET -3.379288 0.000000 -0.001055
										CHANNELS 6 Xposition Yposition Zposition Xrotation Yrotation Zrotation
										JOINT mixamorig:RightHandRing3
										{
											OFFSET -2.889687 -0.000015 0.000379
											CHANNELS 6 Xposition Yposition Zposition Xrotation Yrotation Zrotation
											JOINT mixamorig:RightHandRing4
											{
												OFFSET -2.638809 -0.000015 0.000941
												CHANNELS 6 Xposition Yposition Zposition Xrotation Yrotation Zrotation
												End Site
												{
													OFFSET -263.880371 0.000000 0.516020
												}
											}
										}
									}
								}
								JOINT mixamorig:RightHandPinky1
								{
									OFFSET -8.076683 -0.486710 -3.806280
									CHANNELS 6 Xposition Yposition Zposition Xrotation Yrotation Zrotation
									JOINT mixamorig:RightHandPinky2
									{
										OFFSET -3.600014 -0.000015 -0.003747
										CHANNELS 6 Xposition Yposition Zposition Xrotation Yrotation Zrotation
										JOINT mixamorig:RightHandPinky3
										{
											OFFSET -2.099983 0.000000 -0.005739
											CHANNELS 6 Xposition Yposition Zposition Xrotation Yrotation Zrotation
											JOINT mixamorig:RightHandPinky4
											{
												OFFSET -2.115768 -0.000031 -0.003680
												CHANNELS 6 Xposition Yposition Zposition Xrotation Yrotation Zrotation
												End Site
												{
													OFFSET -211.577087 0.000000 -0.350686
												}
											}
										}
									}
								}
							}
						}
					}
				}
				JOINT mixamorig:LeftShoulder
				{
					OFFSET 4.570447 11.014725 -2.160855
					CHANNELS 6 Xposition Yposition Zposition Xrotation Yrotation Zrotation
					JOINT mixamorig:LeftArm
					{
						OFFSET 10.592371 -0.524597 -2.232119
						CHANNELS 6 Xposition Yposition Zposition Xrotation Yrotation Zrotation
						JOINT mixamorig:LeftForeArm
						{
							OFFSET 27.841532 -0.000031 0.000026
							CHANNELS 6 Xposition Yposition Zposition Xrotation Yrotation Zrotation
							JOINT mixamorig:LeftHand
							{
								OFFSET 28.328846 -0.000061 0.000022
								CHANNELS 6 Xposition Yposition Zposition Xrotation Yrotation Zrotation
								JOINT mixamorig:LeftHandThumb1
								{
									OFFSET 2.466141 -1.576172 2.681732
									CHANNELS 6 Xposition Yposition Zposition Xrotation Yrotation Zrotation
									JOINT mixamorig:LeftHandThumb2
									{
										OFFSET 3.217812 -1.872070 1.916482
										CHANNELS 6 Xposition Yposition Zposition Xrotation Yrotation Zrotation
										JOINT mixamorig:LeftHandThumb3
										{
											OFFSET 2.656029 -1.528778 1.514513
											CHANNELS 6 Xposition Yposition Zposition Xrotation Yrotation Zrotation
											JOINT mixamorig:LeftHandThumb4
											{
												OFFSET 2.020889 -1.154053 1.115139
												CHANNELS 6 Xposition Yposition Zposition Xrotation Yrotation Zrotation
												End Site
												{
													OFFSET 190.885437 -115.081749 130.048782
												}
											}
										}
									}
								}
								JOINT mixamorig:LeftHandIndex1
								{
									OFFSET 9.109314 -0.518021 2.259871
									CHANNELS 6 Xposition Yposition Zposition Xrotation Yrotation Zrotation
									JOINT mixamorig:LeftHandIndex2
									{
										OFFSET 3.699989 0.000000 -0.000322
										CHANNELS 6 Xposition Yposition Zposition Xrotation Yrotation Zrotation
										JOINT mixamorig:LeftHandIndex3
										{
											OFFSET 2.850006 0.000000 0.000352
											CHANNELS 6 Xposition Yposition Zposition Xrotation Yrotation Zrotation
											JOINT mixamorig:LeftHandIndex4
											{
												OFFSET 2.774864 -0.000031 -0.000027
												CHANNELS 6 Xposition Yposition Zposition Xrotation Yrotation Zrotation
												End Site
												{
													OFFSET 277.486267 0.000000 -0.009857
												}
											}
										}
									}
								}
								JOINT mixamorig:LeftHandMiddle1
								{
									OFFSET 9.533394 0.000061 0.000044
									CHANNELS 6 Xposition Yposition Zposition Xrotation Yrotation Zrotation
									JOINT mixamorig:LeftHandMiddle2
									{
										OFFSET 3.699989 -0.000015 -0.000231
										CHANNELS 6 Xposition Yposition Zposition Xrotation Yrotation Zrotation
										JOINT mixamorig:LeftHandMiddle3
										{
											OFFSET 2.949997 -0.000015 -0.000059
											CHANNELS 6 Xposition Yposition Zposition Xrotation Yrotation Zrotation
											JOINT mixamorig:LeftHandMiddle4
											{
												OFFSET 2.952896 0.000031 0.000063
												CHANNELS 6 Xposition Yposition Zposition Xrotation Yrotation Zrotation
												End Site
												{
													OFFSET 295.289337 0.000000 0.022810
												}
											}
										}
									}
								}
								JOINT mixamorig:LeftHandRing1
								{
									OFFSET 9.104523 -0.042999 -1.865074
									CHANNELS 6 Xposition Yposition Zposition Xrotation Yrotation Zrotation
									JOINT mixamorig:LeftHandRing2
									{
										OFFSET 3.150009 -0.000031 0.000043
										CHANNELS 6 Xposition Yposition Zposition Xrotation Yrotation Zrotation
										JOINT mixamorig:LeftHandRing3
										{
											OFFSET 2.949982 -0.000015 0.000040
											CHANNELS 6 Xposition Yposition Zposition Xrotation Yrotation Zrotation
											JOINT mixamorig:LeftHandRing4
											{
												OFFSET 2.644348 0.000000 0.000057
												CHANNELS 6 Xposition Yposition Zposition Xrotation Yrotation Zrotation
												End Site
												{
													OFFSET 264.434631 0.000000 0.012105
												}
											}
										}
									}
								}
								JOINT mixamorig:LeftHandPinky1
								{
									OFFSET 8.077789 -0.486847 -3.806259
									CHANNELS 6 Xposition Yposition Zposition Xrotation Yrotation Zrotation
									JOINT mixamorig:LeftHandPinky2
									{
										OFFSET 3.599953 0.000031 0.014727
										CHANNELS 6 Xposition Yposition Zposition Xrotation Yrotation Zrotation
										JOINT mixamorig:LeftHandPinky3
										{
											OFFSET 2.100021 0.000015 0.007705
											CHANNELS 6 Xposition Yposition Zposition Xrotation Yrotation Zrotation
											JOINT mixamorig:LeftHandPinky4
											{
												OFFSET 2.125504 0.000031 0.007517
												CHANNELS 6 Xposition Yposition Zposition Xrotation Yrotation Zrotation
												End Site
												{
													OFFSET 212.550781 0.000000 0.625752
												}
											}
										}
									}
								}
							}
						}
					}
				}
			}
		}
	}
	JOINT mixamorig:RightUpLeg
	{
		OFFSET -8.207787 -6.751648 -1.599560
		CHANNELS 6 Xposition Yposition Zposition Xrotation Yrotation Zrotation
		JOINT mixamorig:RightLeg
		{
			OFFSET -0.000002 -44.370117 0.345942
			CHANNELS 6 Xposition Yposition Zposition Xrotation Yrotation Zrotation
			JOINT mixamorig:RightFoot
			{
				OFFSET 0.000003 -44.423679 -3.043532
				CHANNELS 6 Xposition Yposition Zposition Xrotation Yrotation Zrotation
				JOINT mixamorig:RightToeBase
				{
					OFFSET -0.000002 -8.728671 10.710558
					CHANNELS 6 Xposition Yposition Zposition Xrotation Yrotation Zrotation
					JOINT mixamorig:RightToe_End
					{
						OFFSET -0.000001 -0.000679 9.278119
						CHANNELS 6 Xposition Yposition Zposition Xrotation Yrotation Zrotation
						End Site
						{
							OFFSET 0.000000 -0.067690 927.812134
						}
					}
				}
			}
		}
	}
	JOINT mixamorig:LeftUpLeg
	{
		OFFSET 8.207793 -6.751686 -1.599556
		CHANNELS 6 Xposition Yposition Zposition Xrotation Yrotation Zrotation
		JOINT mixamorig:LeftLeg
		{
			OFFSET -0.000004 -44.370014 0.346954
			CHANNELS 6 Xposition Yposition Zposition Xrotation Yrotation Zrotation
			JOINT mixamorig:LeftFoot
			{
				OFFSET -0.000001 -44.423672 -3.044401
				CHANNELS 6 Xposition Yposition Zposition Xrotation Yrotation Zrotation
				JOINT mixamorig:LeftToeBase
				{
					OFFSET -0.000002 -8.728669 10.710558
					CHANNELS 6 Xposition Yposition Zposition Xrotation Yrotation Zrotation
					JOINT mixamorig:LeftToe_End
					{
						OFFSET -0.000003 -0.000679 9.278133
						CHANNELS 6 Xposition Yposition Zposition Xrotation Yrotation Zrotation
						End Site
						{
							OFFSET 0.000000 -0.068021 927.813477
						}
					}
				}
			}
		}
	}
}
MOTION
Frames: 3
Frame Time: 0.033333
0.000006 104.270477 1.554256 0.000010 0.000003 -0.000113 -0.000005 10.181587 0.131522 0.000001 -0.000003 0.000084 -0.000000 9.893967 -1.470711 0.000001 0.000000 -0.000000 -0.000000 9.220802 -1.370642 0.000000 -0.000000 -0.000000 0.000001 16.740433 -2.049030 0.000000 -0.000000 -0.000000 0.000000 9.617859 1.685014 0.000000 0.000000 0.000000 0.000002 22.037384 7.501101 0.000000 -0.000000 0.000000 -4.569968 11.014880 -2.160881 0.000008 0.000001 -0.000038 -10.592879 -0.524742 -2.231924 74.760587 24.726164 -19.013455 -27.841534 0.000014 0.000550 -58.611950 109.002251 76.402715 -28.328821 0.000021 0.000027 -0.000325 -0.000043 0.000007 -2.464528 -1.574025 2.682413 -9.147898 -152.935517 62.633900 -3.215283 -1.872595 1.924655 158.721643 33.498256 10.809148 -2.654963 -1.527909 1.513097 153.005718 25.041270 -41.645900 -2.018838 -1.151998 1.108068 -0.000002 0.000006 0.000007 -9.108401 -0.517572 2.260168 107.686832 21.335353 -28.975855 -3.700076 0.000295 0.001566 106.640980 15.032210 -20.058375 -2.850085 0.000367 -0.000208 104.614271 11.106262 -14.342122 -2.772159 -0.000017 -0.000018 0.000000 -0.000000 -0.000002 -9.532637 0.000257 0.000241 92.379750 23.309863 -24.427041 -3.700075 0.000340 0.003978 94.882058 11.891153 -12.838796 -2.950036 0.000340 -0.001818 95.680917 10.036105 -11.070090 -2.946642 0.000002 -0.000152 -0.000002 0.000001 -0.000002 -9.103711 -0.042783 -1.864854 89.570548 23.081629 -22.867304 -3.379336 0.000326 -0.000836 90.458472 7.790923 -7.870393 -2.889728 0.000365 0.000633 95.229858 3.745207 -4.151020 -2.638820 -0.000002 0.000939 0.000002 -0.000003 0.000001 -8.076770 -0.486406 -3.806038 82.292325 22.298350 -19.402935 -3.600057 0.000254 -0.003540 86.404407 10.457227 -9.481598 -2.100039 0.000315 -0.005477 89.306636 6.193316 -5.900533 -2.115771 -0.000053 -0.003678 -0.000004 0.000002 -0.000005 4.570446 11.014691 -2.160851 -0.000018 0.000010 -0.000021 10.592383 -0.524478 -2.232340 75.817873 -6.082129 4.738181 27.841812 0.000094 -0.000203 90.009025 -70.917506 70.926173 28.328831 -0.000029 0.000020 0.000021 -0.000089 0.000000 2.466220 -1.575878 2.681809 -154.523249 -13.003709 34.915572 3.217860 -1.871926 1.916488 164.961076 -11.723805 71.442556 2.656116 -1.528733 1.514536 130.562372 -31.336652 71.434428 2.020882 -1.154087 1.115139 0.000002 -0.000001 0.000006 9.109364 -0.517922 2.259760 68.886727 -23.591574 16.291967 3.700057 0.000094 -0.000455 65.305146 -20.787493 13.419794 2.850041 0.000108 0.000207 60.360144 -15.901440 9.286069 2.774892 -0.000042 -0.000029 0.000001 -0.000003 -0.000005 9.533452 0.000155 -0.000067 66.544088 -20.618958 13.606942 3.700041 0.000111 -0.000363 70.236782 -16.429759 11.592994 2.950065 0.000110 -0.000182 69.408744 -17.698373 12.309988 2.952883 -0.000044 0.000064 0.000003 0.000000 -0.000004 9.104564 -0.042913 -1.865205 66.245820 -18.230647 11.953986 3.150036 0.000137 -0.000090 67.341956 -13.367884 8.929267 2.950022 0.000121 -0.000058 69.739694 -13.273342 9.271814 2.644330 0.000028 0.000061 0.000000 0.000003 0.000001 8.077807 -0.486769 -3.806392 63.558175 -19.150225 12.321275 3.600013 0.000117 0.014579 62.791534 -16.212458 10.268640 2.100042 0.000131 0.007560 66.618312 -14.391448 9.818438 2.125503 -0.000015 0.007517 0.000000 -0.000006 0.000000 -8.207786 -6.751667 -1.599560 -0.077001 -0.000003 0.000080 -0.000002 -44.370110 0.345938 0.153719 -0.000000 -0.000000 0.000000 -44.423679 -3.043532 -0.076700 0.000000 -0.000002 -0.000006 -8.728667 10.710559 -0.000009 -0.000000 -0.000000 -0.000001 -0.000679 9.278123 0.000000 -0.000000 -0.000000 8.207792 -6.751710 -1.599556 -0.074518 -0.000003 0.000081 -0.000002 -44.370014 0.346960 0.148822 0.000002 0.000000 -0.000001 -44.423664 -3.044403 -0.074314 0.000000 -0.000002 -0.000004 -8.728671 10.710558 0.000007 -0.000000 -0.000000 0.000000 -0.000680 9.278137 -0.000000 0.000000 -0.000001 
0.000006 104.270477 1.554256 0.000010 0.000003 -0.000113 -0.000005 10.181587 0.131522 0.000001 -0.000003 0.000084 -0.000000 9.893967 -1.470711 0.000001 0.000000 -0.000000 -0.000000 9.220802 -1.370642 0.000000 -0.000000 -0.000000 0.000001 16.740433 -2.049030 0.000000 -0.000000 -0.000000 0.000000 9.617859 1.685014 0.000000 0.000000 0.000000 0.000002 22.037384 7.501101 0.000000 -0.000000 0.000000 -4.569968 11.014880 -2.160881 0.000008 0.000001 -0.000038 -10.592873 -0.524783 -2.231899 75.055815 32.627305 -25.339756 -27.841526 0.000028 0.000537 -55.577703 106.670876 70.591330 -28.328817 0.000007 0.000025 -0.000316 -0.000045 0.000009 -2.464437 -1.573964 2.682378 -24.523763 -150.003891 34.837715 -3.215268 -1.872563 1.924646 154.565951 33.542796 15.656906 -2.654943 -1.527878 1.513072 147.625660 27.030539 -34.820455 -2.018834 -1.151985 1.108072 -0.000001 -0.000003 0.000005 -9.108393 -0.517580 2.260188 109.326146 18.679348 -26.186238 -3.700071 0.000308 0.001562 106.161856 13.828994 -18.306036 -2.850107 0.000360 -0.000228 104.230961 11.229551 -14.401891 -2.772173 -0.000016 -0.000017 -0.000002 -0.000002 -0.000002 -9.532584 0.000256 0.000250 92.724169 18.307381 -19.335092 -3.700047 0.000345 0.003958 93.588372 9.504899 -10.018868 -2.950053 0.000347 -0.001801 95.336443 10.678210 -11.707496 -2.946643 0.000015 -0.000155 -0.000000 -0.000003 -0.000002 -9.103695 -0.042783 -1.864873 88.855980 19.602569 -19.177549 -3.379313 0.000312 -0.000830 91.074535 6.876905 -7.023829 -2.889756 0.000350 0.000635 96.983482 5.686947 -6.475158 -2.638812 -0.000013 0.000940 -0.000003 0.000001 0.000001 -8.076769 -0.486421 -3.806045 83.687992 20.805992 -18.531676 -3.600047 0.000279 -0.003529 86.828227 10.415350 -9.512340 -2.100007 0.000316 -0.005481 90.155642 7.172525 -6.967332 -2.115763 -0.000039 -0.003679 -0.000001 0.000000 -0.000002 4.570446 11.014691 -2.160851 -0.000018 0.000010 -0.000021 10.592376 -0.524493 -2.232331 75.278868 -2.328538 1.795961 27.841812 0.000069 -0.000208 90.250780 -72.477582 72.717015 28.328823 -0.000028 0.000021 0.000018 -0.000089 0.000000 2.466180 -1.575798 2.681790 -161.752977 -28.599397 13.270729 3.217808 -1.871996 1.916537 156.405868 -9.735499 94.444673 2.656079 -1.528740 1.514557 131.163866 -31.373460 79.662033 2.020888 -1.154077 1.115142 0.000001 0.000004 0.000001 9.109388 -0.517928 2.259775 68.805372 -27.691820 19.150507 3.700039 0.000106 -0.000435 67.233049 -20.450075 13.688935 2.850041 0.000142 0.000224 66.318753 -14.752189 9.668327 2.774875 -0.000056 -0.000023 -0.000002 -0.000002 0.000002 9.533463 0.000133 -0.000055 66.326587 -24.560305 16.184545 3.700043 0.000109 -0.000376 70.485722 -16.446010 11.657827 2.950046 0.000129 -0.000195 69.716711 -12.788972 8.929050 2.952852 -0.000030 0.000067 0.000001 0.000003 0.000002 9.104592 -0.042921 -1.865210 65.874210 -22.241155 14.515863 3.150044 0.000128 -0.000088 70.938140 -15.282823 10.921902 2.950025 0.000116 -0.000086 71.003990 -10.346079 7.391434 2.644315 0.000043 0.000057 -0.000001 0.000001 0.000001 8.077836 -0.486779 -3.806402 63.399079 -22.291115 14.276573 3.599986 0.000124 0.014585 64.488788 -17.505999 11.442699 2.100035 0.000122 0.007547 67.197320 -11.769397 8.160071 2.125501 -0.000036 0.007518 0.000000 0.000000 0.000001 -8.207786 -6.751667 -1.599560 -0.077001 -0.000003 0.000080 -0.000002 -44.370110 0.345938 0.153719 -0.000000 -0.000000 0.000000 -44.423679 -3.043532 -0.076700 0.000000 -0.000002 -0.000006 -8.728667 10.710559 -0.000009 -0.000000 -0.000000 -0.000001 -0.000679 9.278123 0.000000 -0.000000 -0.000000 8.207792 -6.751710 -1.599556 -0.074518 -0.000003 0.000081 -0.000002 -44.370014 0.346960 0.148822 0.000002 0.000000 -0.000001 -44.423664 -3.044403 -0.074314 0.000000 -0.000002 -0.000004 -8.728671 10.710558 0.000007 -0.000000 -0.000000 0.000000 -0.000680 9.278137 -0.000000 0.000000 -0.000001 
0.000006 104.270477 1.554256 0.000010 0.000003 -0.000113 -0.000005 10.181587 0.131522 0.000001 -0.000003 0.000084 -0.000000 9.893967 -1.470711 0.000001 0.000000 -0.000000 -0.000000 9.220802 -1.370642 0.000000 -0.000000 -0.000000 0.000001 16.740433 -2.049030 0.000000 -0.000000 -0.000000 0.000000 9.617859 1.685014 0.000000 0.000000 0.000000 0.000002 22.037384 7.501101 0.000000 -0.000000 0.000000 -4.569968 11.014880 -2.160881 0.000008 0.000001 -0.000038 -10.592857 -0.524800 -2.231836 75.042230 41.898231 -32.765831 -27.841534 0.000002 0.000550 -54.128583 104.560122 66.897714 -28.328812 0.000006 0.000028 -0.000321 -0.000044 0.000006 -2.464437 -1.573967 2.682384 -23.658437 -149.405102 35.969142 -3.215255 -1.872568 1.924639 153.560671 33.867203 19.074253 -2.654970 -1.527862 1.513071 147.347849 27.123479 -34.379754 -2.018829 -1.152019 1.108069 -0.000002 0.000003 -0.000000 -9.108406 -0.517582 2.260175 109.309029 18.571027 -26.029310 -3.700088 0.000309 0.001544 105.837271 14.077844 -18.525840 -2.850092 0.000359 -0.000223 104.290083 11.696698 -15.014211 -2.772165 -0.000001 -0.000019 0.000002 -0.000001 0.000001 -9.532616 0.000265 0.000232 92.047734 17.354162 -18.124759 -3.700071 0.000348 0.003960 93.072604 8.870872 -9.261671 -2.950073 0.000340 -0.001808 95.613141 10.555524 -11.628956 -2.946625 0.000001 -0.000152 -0.000001 -0.000001 0.000000 -9.103715 -0.042767 -1.864887 88.018824 18.775681 -18.104371 -3.379321 0.000315 -0.000823 90.709741 5.839173 -5.928529 -2.889768 0.000359 0.000638 96.994560 5.298522 -6.037421 -2.638834 -0.000017 0.000939 -0.000001 0.000000 0.000001 -8.076759 -0.486397 -3.806045 83.496419 19.992123 -17.740433 -3.600033 0.000271 -0.003523 86.552546 9.375578 -8.491389 -2.100019 0.000323 -0.005477 90.096144 6.551838 -6.340278 -2.115770 -0.000056 -0.003680 0.000002 0.000001 0.000001 4.570446 11.014691 -2.160851 -0.000018 0.000010 -0.000021 10.592413 -0.524468 -2.232357 74.865772 -16.625536 12.763433 27.841818 0.000033 -0.000188 90.445761 -74.621736 75.052106 28.328831 -0.000028 0.000021 0.000024 -0.000088 0.000000 2.466194 -1.575827 2.681780 -160.749445 -23.147699 22.202117 3.217845 -1.871987 1.916518 157.425246 -12.021761 85.335871 2.656088 -1.528736 1.514551 128.313505 -32.620427 74.381976 2.020876 -1.154071 1.115145 0.000002 0.000004 0.000002 9.109381 -0.517932 2.259758 68.973996 -26.729698 18.529152 3.700045 0.000111 -0.000439 68.647199 -19.548729 13.429123 2.850042 0.000125 0.000213 68.046552 -14.340698 9.708047 2.774890 -0.000015 -0.000026 -0.000002 -0.000001 0.000002 9.533457 0.000134 -0.000076 67.892770 -24.759320 16.802638 3.700057 0.000118 -0.000373 72.123827 -16.346108 11.939060 2.950041 0.000115 -0.000208 71.672870 -12.665165 9.166646 2.952869 -0.000011 0.000062 -0.000000 -0.000002 -0.000001 9.104592 -0.042910 -1.865207 67.777176 -22.555726 15.259667 3.150060 0.000131 -0.000084 71.918948 -15.386908 11.195846 2.950022 0.000139 -0.000088 71.979129 -10.057889 7.314818 2.644338 0.000031 0.000060 -0.000001 -0.000002 0.000001 8.077836 -0.486772 -3.806385 65.128907 -23.010706 15.229408 3.600003 0.000132 0.014584 65.299013 -18.179073 12.061209 2.100022 0.000135 0.007545 67.393408 -11.606406 8.080177 2.125505 -0.000017 0.007505 -0.000001 -0.000003 -0.000000 -8.207786 -6.751667 -1.599560 -0.077001 -0.000003 0.000080 -0.000002 -44.370110 0.345938 0.153719 -0.000000 -0.000000 0.000000 -44.423679 -3.043532 -0.076700 0.000000 -0.000002 -0.000006 -8.728667 10.710559 -0.000009 -0.000000 -0.000000 -0.000001 -0.000679 9.278123 0.000000 -0.000000 -0.000000 8.207792 -6.751710 -1.599556 -0.074518 -0.000003 0.000081 -0.000002 -44.370014 0.346960 0.148822 0.000002 0.000000 -0.000001 -44.423664 -3.044403 -0.074314 0.000000 -0.000002 -0.000004 -8.728671 10.710558 0.000007 -0.000000 -0.000000 0.000000 -0.000680 9.278137 -0.000000 0.000000 -0.000001 
